<?xml version="1.0" encoding="UTF-8"?>
<svg width="250px" height="157px" viewBox="0 0 250 157" version="1.1" xmlns="http://www.w3.org/2000/svg" xmlns:xlink="http://www.w3.org/1999/xlink">
    <title>Illustration/没内容</title>
    <defs>
        <linearGradient x1="50%" y1="100%" x2="50%" y2="0%" id="linearGradient-1">
            <stop stop-color="#F5F7FA" stop-opacity="0" offset="0%"></stop>
            <stop stop-color="#D9DEE4" offset="100%"></stop>
        </linearGradient>
        <linearGradient x1="50%" y1="50%" x2="50%" y2="0%" id="linearGradient-2">
            <stop stop-color="#F5F7FA" stop-opacity="0" offset="0%"></stop>
            <stop stop-color="#D9DEE4" offset="100%"></stop>
        </linearGradient>
        <linearGradient x1="50%" y1="50%" x2="50%" y2="0%" id="linearGradient-3">
            <stop stop-color="#F5F7FA" stop-opacity="0" offset="0%"></stop>
            <stop stop-color="#D9DEE4" offset="100%"></stop>
        </linearGradient>
        <linearGradient x1="70.998387%" y1="56.749425%" x2="0%" y2="56.749425%" id="linearGradient-4">
            <stop stop-color="#D9DEE4" offset="0%"></stop>
            <stop stop-color="#F5F7FA" offset="100%"></stop>
        </linearGradient>
        <filter x="-13.8%" y="-41.6%" width="127.5%" height="183.1%" filterUnits="objectBoundingBox" id="filter-5">
            <feGaussianBlur stdDeviation="0.654999971" in="SourceGraphic"></feGaussianBlur>
        </filter>
        <linearGradient x1="70.998387%" y1="56.749425%" x2="0%" y2="56.749425%" id="linearGradient-6">
            <stop stop-color="#D9DEE4" offset="0%"></stop>
            <stop stop-color="#F5F7FA" offset="100%"></stop>
        </linearGradient>
        <filter x="-13.8%" y="-41.6%" width="127.5%" height="183.1%" filterUnits="objectBoundingBox" id="filter-7">
            <feGaussianBlur stdDeviation="0.445399985" in="SourceGraphic"></feGaussianBlur>
        </filter>
        <filter x="-13.8%" y="-41.6%" width="127.5%" height="183.1%" filterUnits="objectBoundingBox" id="filter-8">
            <feGaussianBlur stdDeviation="0.445399985" in="SourceGraphic"></feGaussianBlur>
        </filter>
        <linearGradient x1="17.4817898%" y1="0%" x2="48.5107905%" y2="50%" id="linearGradient-9">
            <stop stop-color="#BEBEBE" offset="0%"></stop>
            <stop stop-color="#E3E3E3" offset="100%"></stop>
        </linearGradient>
        <linearGradient x1="50%" y1="100%" x2="50%" y2="0%" id="linearGradient-10">
            <stop stop-color="#BEBEBE" offset="0%"></stop>
            <stop stop-color="#E3E3E3" offset="100%"></stop>
        </linearGradient>
        <linearGradient x1="50%" y1="100%" x2="50%" y2="0%" id="linearGradient-11">
            <stop stop-color="#D9DEE4" offset="0%"></stop>
            <stop stop-color="#F5F7FA" stop-opacity="0" offset="100%"></stop>
        </linearGradient>
        <linearGradient x1="76.2239927%" y1="100%" x2="21.3062442%" y2="0%" id="linearGradient-12">
            <stop stop-color="#D9DEE4" offset="0%"></stop>
            <stop stop-color="#F5F7FA" offset="100%"></stop>
        </linearGradient>
        <linearGradient x1="83.1669755%" y1="58.1985816%" x2="0%" y2="2.95189788%" id="linearGradient-13">
            <stop stop-color="#D9DEE4" offset="0%"></stop>
            <stop stop-color="#F5F7FA" offset="100%"></stop>
        </linearGradient>
        <polygon id="path-14" points="0 39.4701309 30.712499 45.6126307 38.0834988 32.1003597 7.37099976 28.4136313"></polygon>
        <filter x="-70.9%" y="-122.1%" width="241.8%" height="414.0%" filterUnits="objectBoundingBox" id="filter-15">
            <feOffset dx="0" dy="6" in="SourceAlpha" result="shadowOffsetOuter1"></feOffset>
            <feGaussianBlur stdDeviation="8" in="shadowOffsetOuter1" result="shadowBlurOuter1"></feGaussianBlur>
            <feColorMatrix values="0 0 0 0 0   0 0 0 0 0   0 0 0 0 0  0 0 0 0.0587030157 0" type="matrix" in="shadowBlurOuter1"></feColorMatrix>
        </filter>
        <linearGradient x1="31.9982857%" y1="17.9718464%" x2="68.0017143%" y2="80.6663655%" id="linearGradient-16">
            <stop stop-color="#D9DEE4" offset="0%"></stop>
            <stop stop-color="#F5F7FA" offset="100%"></stop>
        </linearGradient>
        <linearGradient x1="83.1669755%" y1="63.1249883%" x2="0%" y2="-25.3186119%" id="linearGradient-17">
            <stop stop-color="#D9DEE4" offset="0%"></stop>
            <stop stop-color="#F5F7FA" offset="100%"></stop>
        </linearGradient>
        <polygon id="path-18" points="38.0830074 32.0998683 46.6825071 45.6133678 72.4822347 38.2411396 63.882735 25.9573685"></polygon>
        <filter x="-78.5%" y="-106.8%" width="257.0%" height="374.7%" filterUnits="objectBoundingBox" id="filter-19">
            <feOffset dx="0" dy="6" in="SourceAlpha" result="shadowOffsetOuter1"></feOffset>
            <feGaussianBlur stdDeviation="8" in="shadowOffsetOuter1" result="shadowBlurOuter1"></feGaussianBlur>
            <feColorMatrix values="0 0 0 0 0   0 0 0 0 0   0 0 0 0 0  0 0 0 0.0587030157 0" type="matrix" in="shadowBlurOuter1"></feColorMatrix>
        </filter>
        <linearGradient x1="71.6182422%" y1="89.630654%" x2="26.4892415%" y2="7.95143355%" id="linearGradient-20">
            <stop stop-color="#ABB4BE" offset="0%"></stop>
            <stop stop-color="#E4E8ED" offset="100%"></stop>
        </linearGradient>
        <linearGradient x1="64.3153636%" y1="89.630654%" x2="45.594426%" y2="8.90226125%" id="linearGradient-21">
            <stop stop-color="#ABB4BE" offset="0%"></stop>
            <stop stop-color="#E4E8ED" offset="100%"></stop>
        </linearGradient>
        <linearGradient x1="76.2239927%" y1="100%" x2="21.3062442%" y2="0%" id="linearGradient-22">
            <stop stop-color="#D9DEE4" offset="0%"></stop>
            <stop stop-color="#F5F7FA" offset="100%"></stop>
        </linearGradient>
        <linearGradient x1="83.1669755%" y1="58.1985816%" x2="0%" y2="2.95189788%" id="linearGradient-23">
            <stop stop-color="#D9DEE4" offset="0%"></stop>
            <stop stop-color="#F5F7FA" offset="100%"></stop>
        </linearGradient>
        <polygon id="path-24" points="0 4.79103947 9.21375007 6.63378948 11.4250501 2.580108 2.21130002 1.47408945"></polygon>
        <filter x="-236.3%" y="-407.0%" width="572.6%" height="1146.6%" filterUnits="objectBoundingBox" id="filter-25">
            <feOffset dx="0" dy="6" in="SourceAlpha" result="shadowOffsetOuter1"></feOffset>
            <feGaussianBlur stdDeviation="8" in="shadowOffsetOuter1" result="shadowBlurOuter1"></feGaussianBlur>
            <feColorMatrix values="0 0 0 0 0   0 0 0 0 0   0 0 0 0 0  0 0 0 0.0587030157 0" type="matrix" in="shadowBlurOuter1"></feColorMatrix>
        </filter>
        <linearGradient x1="31.9982857%" y1="17.9718464%" x2="68.0017143%" y2="80.6663655%" id="linearGradient-26">
            <stop stop-color="#D9DEE4" offset="0%"></stop>
            <stop stop-color="#F5F7FA" offset="100%"></stop>
        </linearGradient>
        <linearGradient x1="83.1669755%" y1="63.1249883%" x2="0%" y2="-25.3186119%" id="linearGradient-27">
            <stop stop-color="#D9DEE4" offset="0%"></stop>
            <stop stop-color="#F5F7FA" offset="100%"></stop>
        </linearGradient>
        <polygon id="path-28" points="11.4249027 2.57996058 14.0047527 6.63401061 21.7446713 4.42234205 19.1648213 0.73721057"></polygon>
        <filter x="-261.6%" y="-356.1%" width="623.3%" height="1015.8%" filterUnits="objectBoundingBox" id="filter-29">
            <feOffset dx="0" dy="6" in="SourceAlpha" result="shadowOffsetOuter1"></feOffset>
            <feGaussianBlur stdDeviation="8" in="shadowOffsetOuter1" result="shadowBlurOuter1"></feGaussianBlur>
            <feColorMatrix values="0 0 0 0 0   0 0 0 0 0   0 0 0 0 0  0 0 0 0.0587030157 0" type="matrix" in="shadowBlurOuter1"></feColorMatrix>
        </filter>
        <linearGradient x1="71.6182422%" y1="89.630654%" x2="43.3469544%" y2="8.90226125%" id="linearGradient-30">
            <stop stop-color="#ABB4BE" offset="0%"></stop>
            <stop stop-color="#E4E8ED" offset="100%"></stop>
        </linearGradient>
        <linearGradient x1="21.3062442%" y1="17.9718464%" x2="78.6937558%" y2="80.6663655%" id="linearGradient-31">
            <stop stop-color="#D9DEE4" offset="0%"></stop>
            <stop stop-color="#F5F7FA" offset="100%"></stop>
        </linearGradient>
        <polygon id="path-32" points="0 4.79103947 9.21375007 6.63378948 11.4250501 2.580108 2.21130002 1.47408945"></polygon>
        <filter x="-236.3%" y="-407.0%" width="572.6%" height="1146.6%" filterUnits="objectBoundingBox" id="filter-33">
            <feOffset dx="0" dy="6" in="SourceAlpha" result="shadowOffsetOuter1"></feOffset>
            <feGaussianBlur stdDeviation="8" in="shadowOffsetOuter1" result="shadowBlurOuter1"></feGaussianBlur>
            <feColorMatrix values="0 0 0 0 0   0 0 0 0 0   0 0 0 0 0  0 0 0 0.0587030157 0" type="matrix" in="shadowBlurOuter1"></feColorMatrix>
        </filter>
        <linearGradient x1="66.4522494%" y1="100%" x2="31.9982857%" y2="0%" id="linearGradient-34">
            <stop stop-color="#D9DEE4" offset="0%"></stop>
            <stop stop-color="#F5F7FA" offset="100%"></stop>
        </linearGradient>
        <polygon id="path-35" points="11.4249027 2.57996058 14.0047527 6.63401061 21.7446713 4.42234205 19.1648213 0.73721057"></polygon>
        <filter x="-261.6%" y="-356.1%" width="623.3%" height="1015.8%" filterUnits="objectBoundingBox" id="filter-36">
            <feOffset dx="0" dy="6" in="SourceAlpha" result="shadowOffsetOuter1"></feOffset>
            <feGaussianBlur stdDeviation="8" in="shadowOffsetOuter1" result="shadowBlurOuter1"></feGaussianBlur>
            <feColorMatrix values="0 0 0 0 0   0 0 0 0 0   0 0 0 0 0  0 0 0 0.0587030157 0" type="matrix" in="shadowBlurOuter1"></feColorMatrix>
        </filter>
        <filter x="-8.5%" y="-150.0%" width="116.9%" height="400.0%" filterUnits="objectBoundingBox" id="filter-37">
            <feGaussianBlur stdDeviation="2" in="SourceGraphic"></feGaussianBlur>
        </filter>
        <linearGradient x1="84.2129629%" y1="0%" x2="0.060977795%" y2="100%" id="linearGradient-38">
            <stop stop-color="#CED3D9" offset="0%"></stop>
            <stop stop-color="#F5F7FA" offset="100%"></stop>
        </linearGradient>
        <linearGradient x1="84.2547385%" y1="0%" x2="-2.84217094e-12%" y2="100%" id="linearGradient-39">
            <stop stop-color="#CED3D9" offset="0%"></stop>
            <stop stop-color="#F5F7FA" offset="100%"></stop>
        </linearGradient>
        <linearGradient x1="50%" y1="50%" x2="-2.85857652%" y2="92.7640296%" id="linearGradient-40">
            <stop stop-color="#DADFE5" offset="0%"></stop>
            <stop stop-color="#FFFFFF" stop-opacity="0.443137258" offset="100%"></stop>
        </linearGradient>
        <linearGradient x1="50%" y1="50%" x2="22.0068871%" y2="100%" id="linearGradient-41">
            <stop stop-color="#DADFE5" offset="0%"></stop>
            <stop stop-color="#FFFFFF" stop-opacity="0.443137258" offset="100%"></stop>
        </linearGradient>
        <linearGradient x1="50%" y1="0%" x2="50%" y2="100%" id="linearGradient-42">
            <stop stop-color="#5186F0" offset="0%"></stop>
            <stop stop-color="#515FF0" offset="100%"></stop>
        </linearGradient>
        <linearGradient x1="50%" y1="0%" x2="50%" y2="100%" id="linearGradient-43">
            <stop stop-color="#5186F0" offset="0%"></stop>
            <stop stop-color="#515FF0" offset="100%"></stop>
        </linearGradient>
    </defs>
    <g id="Illustration/没内容" stroke="none" stroke-width="1" fill="none" fill-rule="evenodd">
        <g id="编组-8">
            <g id="编组-7">
                <path d="M249.960386,156.004844 C228.181855,108.766797 180.410001,75.9799967 124.980379,75.9799967 C69.5504419,75.9799967 21.7783595,108.76717 4.26325641e-13,156.00565" id="路径" fill="url(#linearGradient-1)"></path>
                <path d="M59.9046433,20.3049991 C63.9814796,20.3049991 67.6250742,22.1525793 70.0374893,25.0529631 C70.5667096,24.9535772 71.1134044,24.9014901 71.6723132,24.9014901 C76.5147834,24.9014901 80.440381,28.8115365 80.440381,33.6348231 C80.440381,38.4581097 76.5147834,42.368156 71.6723132,42.368156 C70.9940543,42.368156 70.3337826,42.2914483 69.6997656,42.1462675 C67.292485,44.8217829 63.7959139,46.504998 59.9046433,46.504998 C56.0521641,46.504998 52.5865544,44.855175 50.1811317,42.2261795 C49.6682825,42.3194202 49.1390806,42.368156 48.5984506,42.368156 C43.7559805,42.368156 39.8303828,38.4581097 39.8303828,33.6348231 C39.8303828,28.8115365 43.7559805,24.9014901 48.5984506,24.9014901 C49.0153109,24.9014901 49.4253768,24.9304655 49.8267288,24.9865045 C52.2402622,22.12428 55.8591498,20.3049991 59.9046433,20.3049991 Z" id="形状结合" fill="url(#linearGradient-2)"></path>
                <path d="M184.618871,0 C189.813667,0 194.456405,2.35577181 197.530287,6.05390611 C198.204705,5.92690862 198.901154,5.86052606 199.61316,5.86052606 C205.783404,5.86052606 210.785375,10.8458352 210.785375,16.9955256 C210.785375,23.145216 205.783404,28.1305251 199.61316,28.1305251 C198.749148,28.1305251 197.908043,28.0327727 197.100372,27.8477592 C194.032473,31.2588694 189.577137,33.4049985 184.618871,33.4049985 C179.710396,33.4049985 175.294801,31.3017564 172.229852,27.9501793 C171.575543,28.0684075 170.901346,28.1305251 170.212593,28.1305251 C164.042349,28.1305251 159.040378,23.145216 159.040378,16.9955256 C159.040378,10.8458352 164.042349,5.86052606 170.212593,5.86052606 C170.744171,5.86052606 171.267077,5.89752766 171.778861,5.96908766 C174.85263,2.31975205 179.463941,0 184.618871,0 Z" id="形状结合备份" fill="url(#linearGradient-3)"></path>
                <g id="编组-6" transform="translate(57.515382, 71.394997)">
                    <polygon id="Fill-3" fill="#C2C6CC" points="10.4799995 34.0599985 13.0999994 34.0599985 13.0999994 13.0999994 10.4799995 13.0999994"></polygon>
                    <path d="M19.6499991,18.363055 C19.6499991,24.5917615 16.1308991,26.1999989 11.789898,26.1999989 C7.44889695,26.1999989 3.92999983,24.5917615 3.92999983,18.363055 C3.92999983,12.1343485 7.44889695,0 11.789898,0 C16.1308991,0 19.6499991,12.1343485 19.6499991,18.363055" id="Fill-1" fill="url(#linearGradient-4)"></path>
                    <polygon id="路径-20" fill="#C2C6CC" filter="url(#filter-5)" points="14.2791425 33.4049985 1.48325796e-13 38.1336143 11.6591426 33.4049985"></polygon>
                </g>
                <g id="编组-5" transform="translate(39.175383, 96.939996)">
                    <polygon id="Fill-3" fill="#C2C6CB" points="7.12639976 23.1607992 8.9079997 23.1607992 8.9079997 8.9079997 7.12639976 8.9079997"></polygon>
                    <path d="M13.3619996,12.4868775 C13.3619996,16.722398 10.9690115,17.8159994 8.01713075,17.8159994 C5.06524998,17.8159994 2.67239991,16.722398 2.67239991,12.4868775 C2.67239991,8.25135708 5.06524998,5.5067062e-14 8.01713075,5.5067062e-14 C10.9690115,5.5067062e-14 13.3619996,8.25135708 13.3619996,12.4868775" id="Fill-1" fill="url(#linearGradient-6)"></path>
                    <polygon id="路径-20" fill="#C2C6CB" filter="url(#filter-7)" points="9.70981702 22.7153992 -3.66817687e-13 25.930858 7.92821708 22.7153992"></polygon>
                </g>
                <g id="编组-3" transform="translate(186.930385, 97.500000) scale(-1, 1) translate(-186.930385, -97.500000) translate(179.930385, 82.500000)">
                    <polygon id="Fill-3" fill="#C2C6CB" points="7.55859088 26.4657955 9.34019082 26.4657955 9.34019082 12.212996 7.55859088 12.212996"></polygon>
                    <path d="M13.6895996,12.4868775 C13.6895996,16.722398 11.2966116,17.8159994 8.34473084,17.8159994 C5.39285007,17.8159994 3,16.722398 3,12.4868775 C3,8.25135708 5.39285007,5.86197757e-14 8.34473084,5.86197757e-14 C11.2966116,5.86197757e-14 13.6895996,8.25135708 13.6895996,12.4868775" id="Fill-1" fill="url(#linearGradient-6)"></path>
                    <polygon id="路径-20" fill="#C2C6CB" filter="url(#filter-8)" points="9.70981702 26.5 9.05941988e-14 29.7154587 7.92821708 26.5"></polygon>
                </g>
            </g>
            <g id="编组" transform="translate(88.930385, 15.500000)">
                <polygon id="Fill-1" fill="url(#linearGradient-9)" points="33.1694989 23.5001228 33.1694989 61.5836216 63.8819979 61.5836216 63.8819979 25.9571228"></polygon>
                <polygon id="Fill-2" fill="url(#linearGradient-10)" points="33.1694989 23.5001228 7.37099976 28.4141227 7.37099976 62.8121216 33.1694989 61.5836216"></polygon>
                <polygon id="路径-32" fill="url(#linearGradient-11)" points="13.6182375 48.5000004 1 0 71 0 59.4863824 48.5000004"></polygon>
                <polygon id="Fill-3" fill="url(#linearGradient-12)" points="7.37136831 62.8115073 38.0826388 68.9540071 38.0826388 32.1002368 7.37136831 28.4135084"></polygon>
                <g id="Fill-4">
                    <use fill="black" fill-opacity="1" filter="url(#filter-15)" xlink:href="#path-14"></use>
                    <use fill="url(#linearGradient-13)" fill-rule="evenodd" xlink:href="#path-14"></use>
                </g>
                <polygon id="Fill-5" fill="url(#linearGradient-16)" points="38.0830074 32.0998683 38.0830074 68.9548671 63.882735 61.5826388 63.882735 25.9573685"></polygon>
                <g id="Fill-6">
                    <use fill="black" fill-opacity="1" filter="url(#filter-19)" xlink:href="#path-18"></use>
                    <use fill="url(#linearGradient-17)" fill-rule="evenodd" xlink:href="#path-18"></use>
                </g>
            </g>
            <g id="编组" transform="translate(87.430385, 69.000000)">
                <polygon id="Fill-1" fill="url(#linearGradient-20)" points="9.95085007 3.68550003e-05 9.95085007 11.4250869 19.1646001 11.4250869 19.1646001 0.73713686"></polygon>
                <polygon id="Fill-2" fill="url(#linearGradient-21)" points="9.95085007 3.68550003e-05 2.21130002 1.47423687 2.21130002 11.7936369 9.95085007 11.4250869"></polygon>
                <polygon id="Fill-3" fill="url(#linearGradient-22)" points="2.21141058 11.7934527 11.4247921 13.6362027 11.4247921 2.58007115 2.21141058 1.47405259"></polygon>
                <g id="Fill-4">
                    <use fill="black" fill-opacity="1" filter="url(#filter-25)" xlink:href="#path-24"></use>
                    <use fill="url(#linearGradient-23)" fill-rule="evenodd" xlink:href="#path-24"></use>
                </g>
                <polygon id="Fill-5" fill="url(#linearGradient-26)" points="11.4249027 2.57996058 11.4249027 13.6364607 19.1648213 11.4247921 19.1648213 0.73721057"></polygon>
                <g id="Fill-6">
                    <use fill="black" fill-opacity="1" filter="url(#filter-29)" xlink:href="#path-28"></use>
                    <use fill="url(#linearGradient-27)" fill-rule="evenodd" xlink:href="#path-28"></use>
                </g>
            </g>
            <g id="编组" transform="translate(146.930385, 77.000000) scale(-1, 1) translate(-146.930385, -77.000000) translate(135.930385, 70.000000)">
                <polygon id="Fill-1" fill="url(#linearGradient-30)" points="9.95085007 3.68550003e-05 9.95085007 11.4250869 19.1646001 11.4250869 19.1646001 0.73713686"></polygon>
                <polygon id="Fill-2" points="9.95085007 3.68550003e-05 2.21130002 1.47423687 2.21130002 11.7936369 9.95085007 11.4250869"></polygon>
                <polygon id="Fill-3" fill="url(#linearGradient-31)" points="2.21141058 11.7934527 11.4247921 13.6362027 11.4247921 2.58007115 2.21141058 1.47405259"></polygon>
                <g id="Fill-4">
                    <use fill="black" fill-opacity="1" filter="url(#filter-33)" xlink:href="#path-32"></use>
                    <use fill="url(#linearGradient-23)" fill-rule="evenodd" xlink:href="#path-32"></use>
                </g>
                <polygon id="Fill-5" fill="url(#linearGradient-34)" points="11.4249027 2.57996058 11.4249027 13.6364607 19.1648213 11.4247921 19.1648213 0.73721057"></polygon>
                <g id="Fill-6">
                    <use fill="black" fill-opacity="1" filter="url(#filter-36)" xlink:href="#path-35"></use>
                    <use fill="url(#linearGradient-27)" fill-rule="evenodd" xlink:href="#path-35"></use>
                </g>
            </g>
            <ellipse id="椭圆形" fill="#B5BDC7" style="mix-blend-mode: multiply;" opacity="0.300000012" filter="url(#filter-37)" cx="124.930385" cy="92" rx="35.5" ry="2"></ellipse>
            <path d="M135.433728,25.6010418 C135.381344,25.5325396 135.300753,25.4962737 135.216133,25.5003032 C135.131512,25.5043328 135.054951,25.5526873 135.014656,25.625219 C134.281279,26.9106427 133.330307,27.3538922 132.492163,27.7447577 C131.944145,27.9986189 131.428364,28.2403913 131.041528,28.6796113 C130.610367,29.1671858 130.40889,29.8280306 130.40889,30.7548251 C130.40889,31.1094248 130.437097,31.5043198 130.49754,31.9435398 C129.393445,32.2094895 128.430385,32.056367 128.430385,32.056367 L128.430385,33.0637523 C129.663425,33.0637523 130.690958,32.7736253 131.436423,32.4593211 C131.923997,32.2739622 132.359188,32.0241306 132.737965,31.7420627 C132.78229,31.7098264 132.806467,31.6896787 132.806467,31.6896787 C134.639908,30.2753097 135.232251,28.0227961 135.232251,28.0227961 C135.232251,30.4284323 133.4794,32.5197642 131.238975,33.2652294 C131.928027,33.4828246 132.568724,33.5835631 133.144948,33.5553563 C133.793705,33.52312 134.369929,33.3377611 134.857504,33.0033092 C135.893096,32.2860508 136.485469,30.8998886 136.485469,29.1953926 C136.489468,27.8172895 136.094573,26.4714227 135.433728,25.6010418 Z" id="路径" fill="url(#linearGradient-38)" transform="translate(132.457927, 29.530000) scale(-1, 1) rotate(-282.000000) translate(-132.457927, -29.530000) "></path>
            <path d="M116.646974,33.0752172 C116.607954,33.024223 116.547924,32.9972261 116.484893,33.0002257 C116.421862,33.0032254 116.364834,33.0392213 116.334819,33.0932151 C115.788548,34.0501062 115.080196,34.3800687 114.455886,34.6710356 C114.047684,34.860014 113.663493,35.0399936 113.37535,35.3669563 C113.054191,35.729915 112.904116,36.221859 112.904116,36.9117805 C112.904116,37.1757505 112.925127,37.469717 112.970149,37.7966798 C112.147741,37.9946572 111.430385,37.8806702 111.430385,37.8806702 L111.430385,38.6305849 C112.348841,38.6305849 113.114221,38.4146095 113.669496,38.1806361 C114.032676,38.0426518 114.356837,37.856673 114.638977,37.6466969 C114.671994,37.6226996 114.690003,37.6077013 114.690003,37.6077013 C116.05568,36.5548211 116.496899,34.878012 116.496899,34.878012 C116.496899,36.6688082 115.191251,38.225631 113.522423,38.7805678 C114.035678,38.9425494 114.512915,39.0175408 114.942128,38.9965432 C115.425367,38.9725459 115.85458,38.8345617 116.217761,38.58559 C116.989143,38.0516508 117.430385,37.0197682 117.430385,35.7509126 C117.433364,34.7250294 117.139218,33.7231434 116.646974,33.0752172 Z" id="路径备份" fill="url(#linearGradient-39)" transform="translate(114.430385, 36.000000) rotate(-290.000000) translate(-114.430385, -36.000000) "></path>
            <path d="M138.430385,24.2050045 C140.574675,23.543782 148.447661,20.742573 146.183897,16.7024993 C143.787481,12.4256858 142.600228,15.9528672 142.893201,17.5861914 C143.881631,23.0966787 151.888662,12.9509309 152.70894,11" id="路径-33" stroke="url(#linearGradient-40)" stroke-width="0.5" stroke-linecap="round" stroke-dasharray="3"></path>
            <path d="M108.933973,31.3110083 C106.870492,29.406331 105.730786,28.1299471 106.033689,24.9362524 C106.164602,23.5559586 107.334533,24.5426757 107.507811,24.9362524 C110.585247,31.9262271 102.928877,26.4545914 101.430385,21" id="路径-34" stroke="url(#linearGradient-41)" stroke-width="0.5" stroke-linecap="round" stroke-dasharray="3"></path>
            <g id="编组-4" transform="translate(155.359957, 37.399418) scale(-1, 1) rotate(-20.000000) translate(-155.359957, -37.399418) translate(146.359957, 31.899418)" fill="#EBEFFB" fill-rule="nonzero">
                <path d="M1.46303058,4.21271621 C1.90560147,3.93091813 2.48558623,4.04064373 2.79680104,4.45174101 L2.84364746,4.51914244 L5.18541404,8.19694507 C5.4820436,8.66280917 5.3448519,9.2809324 4.87898781,9.57756195 C4.43641692,9.85936003 3.85643216,9.74963443 3.54521735,9.33853715 L3.49837093,9.27113572 L1.15660435,5.59333309 C0.859974793,5.12746899 0.997166491,4.50934576 1.46303058,4.21271621 Z" id="路径-29" style="mix-blend-mode: multiply;" transform="translate(3.171009, 6.895139) rotate(-13.000000) translate(-3.171009, -6.895139) "></path>
                <path d="M12.4630306,1.21271621 C12.9056015,0.93091813 13.4855862,1.04064373 13.796801,1.45174101 L13.8436475,1.51914244 L16.185414,5.19694507 C16.4820436,5.66280917 16.3448519,6.2809324 15.8789878,6.57756195 C15.4364169,6.85936003 14.8564322,6.74963443 14.5452173,6.33853715 L14.4983709,6.27113572 L12.1566043,2.59333309 C11.8599748,2.12746899 11.9971665,1.50934576 12.4630306,1.21271621 Z" id="路径-29" style="mix-blend-mode: multiply;" transform="translate(14.171009, 3.895139) scale(-1, 1) rotate(22.000000) translate(-14.171009, -3.895139) "></path>
                <path d="M8.49371842,0.5 C9.02089932,0.5 9.45280098,0.907938895 9.49097555,1.42536883 L9.49371842,1.5 L9.49371842,6.30396693 C9.49371842,6.85625168 9.04600317,7.30396693 8.49371842,7.30396693 C7.96653752,7.30396693 7.53463586,6.89602804 7.49646129,6.3785981 L7.49371842,6.30396693 L7.49371842,1.5 C7.49371842,0.94771525 7.94143367,0.5 8.49371842,0.5 Z" id="路径-30" style="mix-blend-mode: multiply;" transform="translate(8.493718, 3.901983) rotate(-13.000000) translate(-8.493718, -3.901983) "></path>
            </g>
            <g id="编组" transform="translate(116.430385, 73.500000)" fill="url(#linearGradient-42)">
                <path d="M6.35210998,6.10035648 L8.79710997,6.59017148 L8.79710997,9.15090147 L6.35210998,8.66271647 L6.35210998,6.10035648 Z M3.20172749,5.49081798 L5.64672748,5.98063298 L5.64672748,8.54136298 L3.20172749,8.05317798 L3.20172749,5.49081798 Z M0,4.81314549 L2.44499999,5.30214548 L2.44499999,7.86287548 L0,7.37469048 L0,4.81314549 Z M6.35210998,3.05054499 L8.79710997,3.53954499 L8.79710997,6.10027498 L6.35210998,5.61208998 L6.35210998,3.05054499 Z M3.20148299,2.43986549 L5.64648298,2.92968049 L5.64648298,5.49122548 L3.20148299,5.00222549 L3.20148299,2.43986549 Z M6.35210998,8.14999977e-05 L8.79710997,0.488266499 L8.79710997,3.05062649 L6.35210998,2.56162649 L6.35210998,8.14999977e-05 Z" id="形状结合"></path>
            </g>
            <g id="编组" transform="translate(94.430385, 78.000000)" fill="url(#linearGradient-43)">
                <path d="M2.54084403,2.44014263 L3.51884404,2.63606863 L3.51884404,3.66036064 L2.54084403,3.46508664 L2.54084403,2.44014263 Z M1.28069102,2.19632723 L2.25869103,2.39225323 L2.25869103,3.41654524 L1.28069102,3.22127124 L1.28069102,2.19632723 Z M0,1.92525822 L0.978000012,2.12085823 L0.978000012,3.14515024 L0,2.94987624 L0,1.92525822 Z M2.54084403,1.22021801 L3.51884404,1.41581802 L3.51884404,2.44011003 L2.54084403,2.24483603 L2.54084403,1.22021801 Z M1.28059322,0.975946212 L2.25859323,1.17187221 L2.25859323,2.19649023 L1.28059322,2.00089022 L1.28059322,0.975946212 Z M2.54084403,3.25999996e-05 L3.51884404,0.195306602 L3.51884404,1.22025061 L2.54084403,1.02465061 L2.54084403,3.25999996e-05 Z" id="形状结合"></path>
            </g>
            <g id="编组" transform="translate(148.430385, 81.500000) scale(-1, 1) translate(-148.430385, -81.500000) translate(146.430385, 79.500000)" fill="url(#linearGradient-43)">
                <path d="M2.54084403,2.44014263 L3.51884404,2.63606863 L3.51884404,3.66036064 L2.54084403,3.46508664 L2.54084403,2.44014263 Z M1.28069102,2.19632723 L2.25869103,2.39225323 L2.25869103,3.41654524 L1.28069102,3.22127124 L1.28069102,2.19632723 Z M0,1.92525822 L0.978000012,2.12085823 L0.978000012,3.14515024 L0,2.94987624 L0,1.92525822 Z M2.54084403,1.22021801 L3.51884404,1.41581802 L3.51884404,2.44011003 L2.54084403,2.24483603 L2.54084403,1.22021801 Z M1.28059322,0.975946212 L2.25859323,1.17187221 L2.25859323,2.19649023 L1.28059322,2.00089022 L1.28059322,0.975946212 Z M2.54084403,3.25999996e-05 L3.51884404,0.195306602 L3.51884404,1.22025061 L2.54084403,1.02465061 L2.54084403,3.25999996e-05 Z" id="形状结合"></path>
            </g>
        </g>
    </g>
</svg>